<mxfile host="app.diagrams.net" modified="2024-02-18T06:16:43.357Z" agent="Mozilla/5.0 (Windows NT 10.0; Win64; x64) AppleWebKit/537.36 (KHTML, like Gecko) Chrome/121.0.0.0 Safari/537.36" etag="FBzrnmr2Df7zYOHmyEUm" version="23.1.4" type="github">
  <diagram name="Page-1" id="s4RaWJjUozbvL954xzMi">
    <mxGraphModel dx="1195" dy="650" grid="1" gridSize="10" guides="1" tooltips="1" connect="1" arrows="1" fold="1" page="1" pageScale="1" pageWidth="850" pageHeight="1100" math="0" shadow="0">
      <root>
        <mxCell id="0" />
        <mxCell id="1" parent="0" />
        <mxCell id="iPAkWmY3nCHLN92yEFl7-107" value="&lt;p style=&quot;line-height: 110%;&quot;&gt;&lt;br&gt;&lt;/p&gt;" style="rounded=0;whiteSpace=wrap;html=1;fillColor=#ffe6cc;strokeColor=#d79b00;" vertex="1" parent="1">
          <mxGeometry x="8" y="1042" width="240" height="608" as="geometry" />
        </mxCell>
        <mxCell id="iPAkWmY3nCHLN92yEFl7-53" value="&lt;p style=&quot;line-height: 110%;&quot;&gt;&lt;br&gt;&lt;/p&gt;" style="rounded=0;whiteSpace=wrap;html=1;fillColor=#d5e8d4;strokeColor=#82b366;" vertex="1" parent="1">
          <mxGeometry x="248" y="1042" width="594" height="608" as="geometry" />
        </mxCell>
        <mxCell id="iPAkWmY3nCHLN92yEFl7-2" value="" style="rounded=0;whiteSpace=wrap;html=1;dashed=1;fillColor=#dae8fc;strokeColor=#6c8ebf;align=left;" vertex="1" parent="1">
          <mxGeometry x="321.59000000000003" y="1392" width="133.41" height="240" as="geometry" />
        </mxCell>
        <mxCell id="iPAkWmY3nCHLN92yEFl7-3" value="&lt;br&gt;&lt;br&gt;&lt;br&gt;&lt;br&gt;&lt;br&gt;&lt;br&gt;&lt;br&gt;&lt;br&gt;&lt;br&gt;&lt;br&gt;&lt;br&gt;&lt;br&gt;&lt;br&gt;&lt;br&gt;&lt;br&gt;&lt;br&gt;&lt;br&gt;&lt;br&gt;&lt;br&gt;&lt;br&gt;Communication Network 1" style="rounded=0;whiteSpace=wrap;html=1;dashed=1;dashPattern=8 8;fillColor=#dae8fc;strokeColor=#6c8ebf;align=right;" vertex="1" parent="1">
          <mxGeometry x="485" y="1321" width="270" height="311" as="geometry" />
        </mxCell>
        <mxCell id="iPAkWmY3nCHLN92yEFl7-4" value="Ethernet: 10/100Mbps" style="edgeStyle=orthogonalEdgeStyle;shape=connector;rounded=0;orthogonalLoop=1;jettySize=auto;html=1;entryX=0;entryY=0.5;entryDx=0;entryDy=0;labelBackgroundColor=default;strokeColor=default;align=center;verticalAlign=middle;fontFamily=Helvetica;fontSize=11;fontColor=default;endArrow=classic;startArrow=block;startFill=1;" edge="1" parent="1" source="iPAkWmY3nCHLN92yEFl7-9" target="iPAkWmY3nCHLN92yEFl7-18">
          <mxGeometry x="0.5164" relative="1" as="geometry">
            <Array as="points">
              <mxPoint x="275" y="1119" />
            </Array>
            <mxPoint as="offset" />
          </mxGeometry>
        </mxCell>
        <mxCell id="iPAkWmY3nCHLN92yEFl7-5" value="HDMI 2.1&lt;br&gt;(60Hz 4K)" style="edgeStyle=orthogonalEdgeStyle;shape=connector;rounded=0;orthogonalLoop=1;jettySize=auto;html=1;labelBackgroundColor=default;strokeColor=default;align=center;verticalAlign=middle;fontFamily=Helvetica;fontSize=11;fontColor=default;endArrow=classic;startArrow=block;startFill=1;" edge="1" parent="1" source="iPAkWmY3nCHLN92yEFl7-9" target="iPAkWmY3nCHLN92yEFl7-12">
          <mxGeometry x="0.2969" y="12" relative="1" as="geometry">
            <Array as="points">
              <mxPoint x="274.94" y="1207" />
            </Array>
            <mxPoint as="offset" />
          </mxGeometry>
        </mxCell>
        <mxCell id="iPAkWmY3nCHLN92yEFl7-6" style="edgeStyle=orthogonalEdgeStyle;shape=connector;rounded=0;orthogonalLoop=1;jettySize=auto;html=1;entryX=0.5;entryY=1;entryDx=0;entryDy=0;labelBackgroundColor=default;strokeColor=default;align=center;verticalAlign=middle;fontFamily=Helvetica;fontSize=11;fontColor=default;endArrow=classic;startArrow=block;startFill=1;" edge="1" parent="1" source="iPAkWmY3nCHLN92yEFl7-9" target="iPAkWmY3nCHLN92yEFl7-16">
          <mxGeometry relative="1" as="geometry">
            <Array as="points">
              <mxPoint x="540" y="1305" />
            </Array>
          </mxGeometry>
        </mxCell>
        <mxCell id="iPAkWmY3nCHLN92yEFl7-7" style="edgeStyle=orthogonalEdgeStyle;shape=connector;rounded=0;orthogonalLoop=1;jettySize=auto;html=1;entryX=0;entryY=0.5;entryDx=0;entryDy=0;labelBackgroundColor=default;strokeColor=default;align=center;verticalAlign=middle;fontFamily=Helvetica;fontSize=11;fontColor=default;endArrow=classic;startArrow=block;startFill=1;" edge="1" parent="1" source="iPAkWmY3nCHLN92yEFl7-9" target="iPAkWmY3nCHLN92yEFl7-13">
          <mxGeometry relative="1" as="geometry">
            <Array as="points">
              <mxPoint x="744" y="1295" />
            </Array>
          </mxGeometry>
        </mxCell>
        <mxCell id="iPAkWmY3nCHLN92yEFl7-8" value="RJ45: ROS2" style="edgeStyle=orthogonalEdgeStyle;rounded=0;orthogonalLoop=1;jettySize=auto;html=1;" edge="1" parent="1" source="iPAkWmY3nCHLN92yEFl7-9" target="iPAkWmY3nCHLN92yEFl7-12">
          <mxGeometry relative="1" as="geometry">
            <Array as="points">
              <mxPoint x="382" y="1265" />
            </Array>
          </mxGeometry>
        </mxCell>
        <mxCell id="iPAkWmY3nCHLN92yEFl7-9" value="Peripheral&lt;br&gt;Connection(s)" style="sketch=0;pointerEvents=1;shadow=0;dashed=0;html=1;strokeColor=none;fillColor=#434445;aspect=fixed;labelPosition=center;verticalLabelPosition=bottom;verticalAlign=top;align=center;outlineConnect=0;shape=mxgraph.vvd.machine;" vertex="1" parent="1">
          <mxGeometry x="249.17000000000002" y="1246" width="50.84" height="124" as="geometry" />
        </mxCell>
        <mxCell id="iPAkWmY3nCHLN92yEFl7-10" style="edgeStyle=orthogonalEdgeStyle;shape=connector;rounded=0;orthogonalLoop=1;jettySize=auto;html=1;entryX=0.25;entryY=1;entryDx=0;entryDy=0;labelBackgroundColor=default;strokeColor=default;align=center;verticalAlign=middle;fontFamily=Helvetica;fontSize=11;fontColor=default;endArrow=classic;startArrow=block;startFill=1;" edge="1" parent="1" source="iPAkWmY3nCHLN92yEFl7-12" target="iPAkWmY3nCHLN92yEFl7-20">
          <mxGeometry relative="1" as="geometry">
            <Array as="points">
              <mxPoint x="395" y="1263" />
              <mxPoint x="465" y="1263" />
            </Array>
          </mxGeometry>
        </mxCell>
        <mxCell id="iPAkWmY3nCHLN92yEFl7-11" style="edgeStyle=orthogonalEdgeStyle;rounded=0;orthogonalLoop=1;jettySize=auto;html=1;entryX=0;entryY=0;entryDx=0;entryDy=0;fillColor=#f8cecc;strokeColor=#b85450;" edge="1" parent="1" source="iPAkWmY3nCHLN92yEFl7-12" target="iPAkWmY3nCHLN92yEFl7-34">
          <mxGeometry relative="1" as="geometry">
            <Array as="points">
              <mxPoint x="435" y="1207" />
              <mxPoint x="435" y="1325" />
              <mxPoint x="511" y="1325" />
            </Array>
          </mxGeometry>
        </mxCell>
        <mxCell id="iPAkWmY3nCHLN92yEFl7-12" value="CCU" style="sketch=0;outlineConnect=0;fontColor=#232F3E;gradientColor=none;fillColor=#232F3D;strokeColor=none;dashed=0;verticalLabelPosition=top;verticalAlign=bottom;align=center;html=1;fontSize=12;fontStyle=0;aspect=fixed;pointerEvents=1;shape=mxgraph.aws4.camera2;labelPosition=center;" vertex="1" parent="1">
          <mxGeometry x="342.59000000000003" y="1176" width="78" height="62" as="geometry" />
        </mxCell>
        <mxCell id="iPAkWmY3nCHLN92yEFl7-13" value="Suction" style="rounded=0;whiteSpace=wrap;html=1;" vertex="1" parent="1">
          <mxGeometry x="744" y="1277" width="86" height="34" as="geometry" />
        </mxCell>
        <mxCell id="iPAkWmY3nCHLN92yEFl7-14" style="edgeStyle=orthogonalEdgeStyle;shape=connector;rounded=0;orthogonalLoop=1;jettySize=auto;html=1;entryX=0.5;entryY=1;entryDx=0;entryDy=0;labelBackgroundColor=default;strokeColor=default;align=center;verticalAlign=middle;fontFamily=Helvetica;fontSize=11;fontColor=default;endArrow=classic;startArrow=block;startFill=1;exitX=1;exitY=0.5;exitDx=0;exitDy=0;" edge="1" parent="1" source="iPAkWmY3nCHLN92yEFl7-16" target="iPAkWmY3nCHLN92yEFl7-32">
          <mxGeometry relative="1" as="geometry" />
        </mxCell>
        <mxCell id="iPAkWmY3nCHLN92yEFl7-15" style="edgeStyle=orthogonalEdgeStyle;shape=connector;rounded=0;orthogonalLoop=1;jettySize=auto;html=1;labelBackgroundColor=default;strokeColor=default;align=center;verticalAlign=middle;fontFamily=Helvetica;fontSize=11;fontColor=default;endArrow=classic;startArrow=block;startFill=1;entryX=0;entryY=1;entryDx=0;entryDy=0;" edge="1" parent="1" source="iPAkWmY3nCHLN92yEFl7-16" target="iPAkWmY3nCHLN92yEFl7-23">
          <mxGeometry relative="1" as="geometry">
            <mxPoint x="705" y="1215" as="targetPoint" />
            <Array as="points">
              <mxPoint x="540" y="1305" />
              <mxPoint x="680" y="1305" />
            </Array>
          </mxGeometry>
        </mxCell>
        <mxCell id="iPAkWmY3nCHLN92yEFl7-16" value="RF(1) Generator" style="rounded=0;whiteSpace=wrap;html=1;" vertex="1" parent="1">
          <mxGeometry x="495" y="1232" width="90" height="34" as="geometry" />
        </mxCell>
        <mxCell id="iPAkWmY3nCHLN92yEFl7-17" value="RJ45: UDP" style="edgeStyle=orthogonalEdgeStyle;shape=connector;rounded=0;orthogonalLoop=1;jettySize=auto;html=1;exitX=1;exitY=0.5;exitDx=0;exitDy=0;entryX=0;entryY=0.5;entryDx=0;entryDy=0;labelBackgroundColor=default;strokeColor=default;align=center;verticalAlign=middle;fontFamily=Helvetica;fontSize=11;fontColor=default;endArrow=classic;startArrow=block;startFill=1;" edge="1" parent="1" source="iPAkWmY3nCHLN92yEFl7-18" target="iPAkWmY3nCHLN92yEFl7-26">
          <mxGeometry relative="1" as="geometry">
            <Array as="points" />
          </mxGeometry>
        </mxCell>
        <mxCell id="iPAkWmY3nCHLN92yEFl7-18" value="ECB Hub" style="shape=image;html=1;verticalAlign=bottom;verticalLabelPosition=top;labelBackgroundColor=#ffffff;imageAspect=0;aspect=fixed;image=https://cdn1.iconfinder.com/data/icons/bootstrap-vol-3/16/motherboard-128.png;labelPosition=center;align=center;" vertex="1" parent="1">
          <mxGeometry x="352.94" y="1082" width="74" height="74" as="geometry" />
        </mxCell>
        <mxCell id="iPAkWmY3nCHLN92yEFl7-19" style="edgeStyle=orthogonalEdgeStyle;rounded=0;orthogonalLoop=1;jettySize=auto;html=1;exitX=1;exitY=1;exitDx=0;exitDy=0;entryX=0;entryY=0;entryDx=0;entryDy=0;fillColor=#f8cecc;strokeColor=#b85450;dashed=1;dashPattern=8 8;" edge="1" parent="1" source="iPAkWmY3nCHLN92yEFl7-20" target="iPAkWmY3nCHLN92yEFl7-28">
          <mxGeometry relative="1" as="geometry">
            <Array as="points">
              <mxPoint x="533" y="1225" />
              <mxPoint x="630" y="1225" />
            </Array>
          </mxGeometry>
        </mxCell>
        <mxCell id="iPAkWmY3nCHLN92yEFl7-20" value="RBA1" style="rounded=0;whiteSpace=wrap;html=1;" vertex="1" parent="1">
          <mxGeometry x="442.94" y="1176" width="90" height="34" as="geometry" />
        </mxCell>
        <mxCell id="iPAkWmY3nCHLN92yEFl7-21" value="" style="edgeStyle=orthogonalEdgeStyle;shape=connector;rounded=0;orthogonalLoop=1;jettySize=auto;html=1;labelBackgroundColor=default;strokeColor=default;align=center;verticalAlign=middle;fontFamily=Helvetica;fontSize=11;fontColor=default;endArrow=classic;" edge="1" parent="1" source="iPAkWmY3nCHLN92yEFl7-32" target="iPAkWmY3nCHLN92yEFl7-20">
          <mxGeometry relative="1" as="geometry" />
        </mxCell>
        <mxCell id="iPAkWmY3nCHLN92yEFl7-22" style="edgeStyle=orthogonalEdgeStyle;rounded=0;orthogonalLoop=1;jettySize=auto;html=1;exitX=0.25;exitY=1;exitDx=0;exitDy=0;fillColor=#f8cecc;strokeColor=#b85450;dashed=1;dashPattern=8 8;" edge="1" parent="1" source="iPAkWmY3nCHLN92yEFl7-23" target="iPAkWmY3nCHLN92yEFl7-28">
          <mxGeometry relative="1" as="geometry" />
        </mxCell>
        <mxCell id="iPAkWmY3nCHLN92yEFl7-23" value="RBA3" style="rounded=0;whiteSpace=wrap;html=1;" vertex="1" parent="1">
          <mxGeometry x="715" y="1175" width="90" height="34" as="geometry" />
        </mxCell>
        <mxCell id="iPAkWmY3nCHLN92yEFl7-24" value="" style="edgeStyle=orthogonalEdgeStyle;shape=connector;rounded=0;orthogonalLoop=1;jettySize=auto;html=1;labelBackgroundColor=default;strokeColor=default;align=center;verticalAlign=middle;fontFamily=Helvetica;fontSize=11;fontColor=default;endArrow=classic;" edge="1" parent="1" source="iPAkWmY3nCHLN92yEFl7-26" target="iPAkWmY3nCHLN92yEFl7-20">
          <mxGeometry relative="1" as="geometry" />
        </mxCell>
        <mxCell id="iPAkWmY3nCHLN92yEFl7-25" style="edgeStyle=orthogonalEdgeStyle;rounded=0;orthogonalLoop=1;jettySize=auto;html=1;exitX=1;exitY=0.5;exitDx=0;exitDy=0;entryX=0.75;entryY=0;entryDx=0;entryDy=0;fillColor=#f8cecc;strokeColor=#b85450;dashed=1;dashPattern=8 8;" edge="1" parent="1" source="iPAkWmY3nCHLN92yEFl7-26" target="iPAkWmY3nCHLN92yEFl7-28">
          <mxGeometry relative="1" as="geometry">
            <Array as="points">
              <mxPoint x="698" y="1119" />
            </Array>
          </mxGeometry>
        </mxCell>
        <mxCell id="iPAkWmY3nCHLN92yEFl7-26" value="EMS" style="rounded=0;whiteSpace=wrap;html=1;" vertex="1" parent="1">
          <mxGeometry x="511" y="1102" width="90" height="34" as="geometry" />
        </mxCell>
        <mxCell id="iPAkWmY3nCHLN92yEFl7-27" style="edgeStyle=orthogonalEdgeStyle;rounded=0;orthogonalLoop=1;jettySize=auto;html=1;exitX=0.5;exitY=1;exitDx=0;exitDy=0;fillColor=#f8cecc;strokeColor=#b85450;dashed=1;dashPattern=8 8;" edge="1" parent="1" source="iPAkWmY3nCHLN92yEFl7-28" target="iPAkWmY3nCHLN92yEFl7-39">
          <mxGeometry relative="1" as="geometry" />
        </mxCell>
        <mxCell id="iPAkWmY3nCHLN92yEFl7-28" value="Force Sensors" style="rounded=0;whiteSpace=wrap;html=1;fillColor=#f8cecc;strokeColor=#b85450;" vertex="1" parent="1">
          <mxGeometry x="630" y="1343" width="90" height="34" as="geometry" />
        </mxCell>
        <mxCell id="iPAkWmY3nCHLN92yEFl7-29" value="" style="edgeStyle=orthogonalEdgeStyle;rounded=0;orthogonalLoop=1;jettySize=auto;html=1;fillColor=#f8cecc;strokeColor=#b85450;" edge="1" parent="1" source="iPAkWmY3nCHLN92yEFl7-30" target="iPAkWmY3nCHLN92yEFl7-43">
          <mxGeometry relative="1" as="geometry" />
        </mxCell>
        <mxCell id="iPAkWmY3nCHLN92yEFl7-30" value="Cross Validation" style="rounded=0;whiteSpace=wrap;html=1;fillColor=#f8cecc;strokeColor=#b85450;" vertex="1" parent="1">
          <mxGeometry x="510" y="1590" width="90" height="34" as="geometry" />
        </mxCell>
        <mxCell id="iPAkWmY3nCHLN92yEFl7-31" style="edgeStyle=orthogonalEdgeStyle;rounded=0;orthogonalLoop=1;jettySize=auto;html=1;exitX=0.75;exitY=1;exitDx=0;exitDy=0;entryX=0.25;entryY=0;entryDx=0;entryDy=0;fillColor=#f8cecc;strokeColor=#b85450;dashed=1;dashPattern=8 8;" edge="1" parent="1" source="iPAkWmY3nCHLN92yEFl7-32" target="iPAkWmY3nCHLN92yEFl7-28">
          <mxGeometry relative="1" as="geometry" />
        </mxCell>
        <mxCell id="iPAkWmY3nCHLN92yEFl7-32" value="RBA2" style="rounded=0;whiteSpace=wrap;html=1;" vertex="1" parent="1">
          <mxGeometry x="585" y="1176" width="90" height="34" as="geometry" />
        </mxCell>
        <mxCell id="iPAkWmY3nCHLN92yEFl7-33" style="edgeStyle=orthogonalEdgeStyle;rounded=0;orthogonalLoop=1;jettySize=auto;html=1;exitX=0.5;exitY=1;exitDx=0;exitDy=0;fillColor=#f8cecc;strokeColor=#b85450;" edge="1" parent="1" source="iPAkWmY3nCHLN92yEFl7-34" target="iPAkWmY3nCHLN92yEFl7-37">
          <mxGeometry relative="1" as="geometry" />
        </mxCell>
        <mxCell id="iPAkWmY3nCHLN92yEFl7-34" value="Cameras (Vision)" style="rounded=0;whiteSpace=wrap;html=1;fillColor=#f8cecc;strokeColor=#b85450;" vertex="1" parent="1">
          <mxGeometry x="511" y="1343" width="90" height="34" as="geometry" />
        </mxCell>
        <mxCell id="iPAkWmY3nCHLN92yEFl7-35" value="" style="edgeStyle=orthogonalEdgeStyle;rounded=0;orthogonalLoop=1;jettySize=auto;html=1;fillColor=#f8cecc;strokeColor=#b85450;" edge="1" parent="1" source="iPAkWmY3nCHLN92yEFl7-37" target="iPAkWmY3nCHLN92yEFl7-41">
          <mxGeometry relative="1" as="geometry" />
        </mxCell>
        <mxCell id="iPAkWmY3nCHLN92yEFl7-36" value="" style="edgeStyle=orthogonalEdgeStyle;rounded=0;orthogonalLoop=1;jettySize=auto;html=1;entryX=1;entryY=0.5;entryDx=0;entryDy=0;fillColor=#f8cecc;strokeColor=#b85450;" edge="1" parent="1" source="iPAkWmY3nCHLN92yEFl7-37" target="iPAkWmY3nCHLN92yEFl7-45">
          <mxGeometry relative="1" as="geometry">
            <mxPoint x="446" y="1433" as="targetPoint" />
          </mxGeometry>
        </mxCell>
        <mxCell id="iPAkWmY3nCHLN92yEFl7-37" value="Visual Data" style="shape=dataStorage;whiteSpace=wrap;html=1;fixedSize=1;size=6;fillColor=#f8cecc;strokeColor=#b85450;" vertex="1" parent="1">
          <mxGeometry x="511" y="1419" width="90" height="54" as="geometry" />
        </mxCell>
        <mxCell id="iPAkWmY3nCHLN92yEFl7-38" style="edgeStyle=orthogonalEdgeStyle;rounded=0;orthogonalLoop=1;jettySize=auto;html=1;exitX=0.5;exitY=1;exitDx=0;exitDy=0;entryX=1;entryY=0.5;entryDx=0;entryDy=0;fillColor=#f8cecc;strokeColor=#b85450;" edge="1" parent="1" source="iPAkWmY3nCHLN92yEFl7-39" target="iPAkWmY3nCHLN92yEFl7-30">
          <mxGeometry relative="1" as="geometry" />
        </mxCell>
        <mxCell id="iPAkWmY3nCHLN92yEFl7-39" value="Measured &lt;br&gt;Force" style="shape=dataStorage;whiteSpace=wrap;html=1;fixedSize=1;size=6;fillColor=#f8cecc;strokeColor=#b85450;" vertex="1" parent="1">
          <mxGeometry x="630" y="1419" width="90" height="54" as="geometry" />
        </mxCell>
        <mxCell id="iPAkWmY3nCHLN92yEFl7-40" style="edgeStyle=orthogonalEdgeStyle;rounded=0;orthogonalLoop=1;jettySize=auto;html=1;exitX=0.75;exitY=1;exitDx=0;exitDy=0;entryX=0.5;entryY=0;entryDx=0;entryDy=0;fillColor=#f8cecc;strokeColor=#b85450;" edge="1" parent="1" source="iPAkWmY3nCHLN92yEFl7-41" target="iPAkWmY3nCHLN92yEFl7-30">
          <mxGeometry relative="1" as="geometry">
            <Array as="points">
              <mxPoint x="555" y="1532" />
            </Array>
          </mxGeometry>
        </mxCell>
        <mxCell id="iPAkWmY3nCHLN92yEFl7-41" value="Synthetic Force Data" style="whiteSpace=wrap;html=1;fillColor=#f8cecc;strokeColor=#b85450;" vertex="1" parent="1">
          <mxGeometry x="511" y="1498" width="90" height="34" as="geometry" />
        </mxCell>
        <mxCell id="iPAkWmY3nCHLN92yEFl7-42" value="Visual force plot" style="edgeStyle=orthogonalEdgeStyle;rounded=0;orthogonalLoop=1;jettySize=auto;html=1;fillColor=#f8cecc;strokeColor=#b85450;" edge="1" parent="1">
          <mxGeometry relative="1" as="geometry">
            <mxPoint x="343.94000000000005" y="1612" as="sourcePoint" />
            <mxPoint x="274" y="1370" as="targetPoint" />
          </mxGeometry>
        </mxCell>
        <mxCell id="iPAkWmY3nCHLN92yEFl7-43" value="Validated Haptic Feedback" style="rounded=0;whiteSpace=wrap;html=1;fillColor=#f8cecc;strokeColor=#b85450;" vertex="1" parent="1">
          <mxGeometry x="344.94" y="1590" width="90" height="34" as="geometry" />
        </mxCell>
        <mxCell id="iPAkWmY3nCHLN92yEFl7-44" value="Video Feed" style="edgeStyle=orthogonalEdgeStyle;rounded=0;orthogonalLoop=1;jettySize=auto;html=1;exitX=0;exitY=0.5;exitDx=0;exitDy=0;fillColor=#f8cecc;strokeColor=#b85450;" edge="1" parent="1" source="iPAkWmY3nCHLN92yEFl7-45" target="iPAkWmY3nCHLN92yEFl7-9">
          <mxGeometry x="-0.4582" y="2" relative="1" as="geometry">
            <mxPoint x="275" y="1355" as="targetPoint" />
            <mxPoint as="offset" />
          </mxGeometry>
        </mxCell>
        <mxCell id="iPAkWmY3nCHLN92yEFl7-45" value="Visual Feedback" style="whiteSpace=wrap;html=1;fillColor=#f8cecc;strokeColor=#b85450;" vertex="1" parent="1">
          <mxGeometry x="344.94000000000005" y="1429" width="90" height="34" as="geometry" />
        </mxCell>
        <mxCell id="iPAkWmY3nCHLN92yEFl7-46" value="Communication Network 2" style="text;html=1;align=left;verticalAlign=middle;whiteSpace=wrap;rounded=0;" vertex="1" parent="1">
          <mxGeometry x="323.3" y="1399" width="130" height="20" as="geometry" />
        </mxCell>
        <mxCell id="iPAkWmY3nCHLN92yEFl7-47" value="" style="endArrow=none;html=1;rounded=0;strokeColor=#FF0000;" edge="1" parent="1">
          <mxGeometry width="50" height="50" relative="1" as="geometry">
            <mxPoint x="650.5" y="1403" as="sourcePoint" />
            <mxPoint x="700.5" y="1383" as="targetPoint" />
          </mxGeometry>
        </mxCell>
        <mxCell id="iPAkWmY3nCHLN92yEFl7-48" value="" style="endArrow=none;html=1;rounded=0;strokeColor=#FF0000;" edge="1" parent="1">
          <mxGeometry width="50" height="50" relative="1" as="geometry">
            <mxPoint x="649.5" y="1383" as="sourcePoint" />
            <mxPoint x="699.5" y="1403" as="targetPoint" />
          </mxGeometry>
        </mxCell>
        <mxCell id="iPAkWmY3nCHLN92yEFl7-106" value="LAN &lt;br&gt;DTLS (AES Encryption)" style="edgeStyle=orthogonalEdgeStyle;rounded=0;orthogonalLoop=1;jettySize=auto;html=1;startArrow=classic;startFill=1;" edge="1" parent="1" source="iPAkWmY3nCHLN92yEFl7-49">
          <mxGeometry x="-0.3808" y="-13" relative="1" as="geometry">
            <mxPoint x="28" y="1132" as="targetPoint" />
            <Array as="points">
              <mxPoint x="77" y="1132" />
            </Array>
            <mxPoint as="offset" />
          </mxGeometry>
        </mxCell>
        <mxCell id="iPAkWmY3nCHLN92yEFl7-49" value="User Console" style="sketch=0;pointerEvents=1;shadow=0;dashed=0;html=1;strokeColor=none;fillColor=#434445;aspect=fixed;labelPosition=center;verticalLabelPosition=bottom;verticalAlign=top;align=center;outlineConnect=0;shape=mxgraph.vvd.monitor;" vertex="1" parent="1">
          <mxGeometry x="25.000000000000014" y="1282" width="104.3" height="97" as="geometry" />
        </mxCell>
        <mxCell id="iPAkWmY3nCHLN92yEFl7-50" value="SSH" style="edgeStyle=orthogonalEdgeStyle;rounded=0;orthogonalLoop=1;jettySize=auto;html=1;startArrow=classic;startFill=1;" edge="1" parent="1" source="iPAkWmY3nCHLN92yEFl7-49" target="iPAkWmY3nCHLN92yEFl7-9">
          <mxGeometry x="0.0128" relative="1" as="geometry">
            <mxPoint x="290.99882352941177" y="1282" as="sourcePoint" />
            <mxPoint x="359.1700000000001" y="1192" as="targetPoint" />
            <Array as="points">
              <mxPoint x="235" y="1325" />
              <mxPoint x="235" y="1325" />
            </Array>
            <mxPoint as="offset" />
          </mxGeometry>
        </mxCell>
        <mxCell id="iPAkWmY3nCHLN92yEFl7-51" value="" style="endArrow=none;html=1;rounded=0;strokeColor=#FF0000;" edge="1" parent="1">
          <mxGeometry width="50" height="50" relative="1" as="geometry">
            <mxPoint x="615" y="1285" as="sourcePoint" />
            <mxPoint x="725" y="1255" as="targetPoint" />
          </mxGeometry>
        </mxCell>
        <mxCell id="iPAkWmY3nCHLN92yEFl7-52" value="" style="endArrow=none;html=1;rounded=0;strokeColor=#FF0000;" edge="1" parent="1">
          <mxGeometry width="50" height="50" relative="1" as="geometry">
            <mxPoint x="615" y="1255" as="sourcePoint" />
            <mxPoint x="725" y="1285" as="targetPoint" />
          </mxGeometry>
        </mxCell>
        <mxCell id="iPAkWmY3nCHLN92yEFl7-54" value="Slave / Executive Unit" style="text;html=1;align=center;verticalAlign=middle;whiteSpace=wrap;rounded=0;" vertex="1" parent="1">
          <mxGeometry x="463" y="1042" width="137" height="30" as="geometry" />
        </mxCell>
        <mxCell id="iPAkWmY3nCHLN92yEFl7-80" value="Ethernet: 10/100Mbps" style="edgeStyle=orthogonalEdgeStyle;shape=connector;rounded=0;orthogonalLoop=1;jettySize=auto;html=1;entryX=0;entryY=0.5;entryDx=0;entryDy=0;labelBackgroundColor=default;strokeColor=default;align=center;verticalAlign=middle;fontFamily=Helvetica;fontSize=11;fontColor=default;endArrow=classic;startArrow=block;startFill=1;" edge="1" parent="1" source="iPAkWmY3nCHLN92yEFl7-84" target="iPAkWmY3nCHLN92yEFl7-91">
          <mxGeometry x="0.5164" relative="1" as="geometry">
            <Array as="points">
              <mxPoint x="301" y="87" />
            </Array>
            <mxPoint as="offset" />
          </mxGeometry>
        </mxCell>
        <mxCell id="iPAkWmY3nCHLN92yEFl7-81" value="HDMI 2.1&lt;br&gt;(60Hz 4K)" style="edgeStyle=orthogonalEdgeStyle;shape=connector;rounded=0;orthogonalLoop=1;jettySize=auto;html=1;labelBackgroundColor=default;strokeColor=default;align=center;verticalAlign=middle;fontFamily=Helvetica;fontSize=11;fontColor=default;endArrow=classic;startArrow=block;startFill=1;" edge="1" parent="1" source="iPAkWmY3nCHLN92yEFl7-84" target="iPAkWmY3nCHLN92yEFl7-86">
          <mxGeometry x="0.2969" y="12" relative="1" as="geometry">
            <Array as="points">
              <mxPoint x="300.94" y="175" />
            </Array>
            <mxPoint as="offset" />
          </mxGeometry>
        </mxCell>
        <mxCell id="iPAkWmY3nCHLN92yEFl7-83" value="RJ45: ROS2" style="edgeStyle=orthogonalEdgeStyle;rounded=0;orthogonalLoop=1;jettySize=auto;html=1;" edge="1" parent="1" source="iPAkWmY3nCHLN92yEFl7-84" target="iPAkWmY3nCHLN92yEFl7-86">
          <mxGeometry relative="1" as="geometry">
            <Array as="points">
              <mxPoint x="408" y="233" />
            </Array>
          </mxGeometry>
        </mxCell>
        <mxCell id="iPAkWmY3nCHLN92yEFl7-84" value="Peripheral&lt;br&gt;Connection(s)" style="sketch=0;pointerEvents=1;shadow=0;dashed=0;html=1;strokeColor=none;fillColor=#434445;aspect=fixed;labelPosition=center;verticalLabelPosition=bottom;verticalAlign=top;align=center;outlineConnect=0;shape=mxgraph.vvd.machine;" vertex="1" parent="1">
          <mxGeometry x="275.17" y="214" width="50.84" height="124" as="geometry" />
        </mxCell>
        <mxCell id="iPAkWmY3nCHLN92yEFl7-85" value="CAN-1" style="edgeStyle=orthogonalEdgeStyle;shape=connector;rounded=0;orthogonalLoop=1;jettySize=auto;html=1;entryX=0.25;entryY=1;entryDx=0;entryDy=0;labelBackgroundColor=default;strokeColor=default;align=center;verticalAlign=middle;fontFamily=Helvetica;fontSize=11;fontColor=default;endArrow=classic;startArrow=block;startFill=1;" edge="1" parent="1" source="iPAkWmY3nCHLN92yEFl7-86" target="iPAkWmY3nCHLN92yEFl7-92">
          <mxGeometry relative="1" as="geometry">
            <Array as="points">
              <mxPoint x="421" y="231" />
              <mxPoint x="491" y="231" />
            </Array>
          </mxGeometry>
        </mxCell>
        <mxCell id="iPAkWmY3nCHLN92yEFl7-86" value="CCU" style="sketch=0;outlineConnect=0;fontColor=#232F3E;gradientColor=none;fillColor=#232F3D;strokeColor=none;dashed=0;verticalLabelPosition=top;verticalAlign=bottom;align=center;html=1;fontSize=12;fontStyle=0;aspect=fixed;pointerEvents=1;shape=mxgraph.aws4.camera2;labelPosition=center;" vertex="1" parent="1">
          <mxGeometry x="368.59000000000003" y="144" width="78" height="62" as="geometry" />
        </mxCell>
        <mxCell id="iPAkWmY3nCHLN92yEFl7-99" style="edgeStyle=orthogonalEdgeStyle;rounded=0;orthogonalLoop=1;jettySize=auto;html=1;startArrow=classic;startFill=1;" edge="1" parent="1" source="iPAkWmY3nCHLN92yEFl7-87" target="iPAkWmY3nCHLN92yEFl7-84">
          <mxGeometry relative="1" as="geometry">
            <Array as="points">
              <mxPoint x="469" y="310" />
              <mxPoint x="469" y="310" />
            </Array>
          </mxGeometry>
        </mxCell>
        <mxCell id="iPAkWmY3nCHLN92yEFl7-87" value="Suction" style="rounded=0;whiteSpace=wrap;html=1;" vertex="1" parent="1">
          <mxGeometry x="520" y="293" width="86" height="34" as="geometry" />
        </mxCell>
        <mxCell id="iPAkWmY3nCHLN92yEFl7-88" value="CAN-3" style="edgeStyle=orthogonalEdgeStyle;shape=connector;rounded=0;orthogonalLoop=1;jettySize=auto;html=1;labelBackgroundColor=default;strokeColor=default;align=center;verticalAlign=middle;fontFamily=Helvetica;fontSize=11;fontColor=default;endArrow=classic;startArrow=block;startFill=1;entryX=0;entryY=1;entryDx=0;entryDy=0;" edge="1" parent="1" source="iPAkWmY3nCHLN92yEFl7-89" target="iPAkWmY3nCHLN92yEFl7-93">
          <mxGeometry relative="1" as="geometry">
            <mxPoint x="731" y="183" as="targetPoint" />
            <Array as="points">
              <mxPoint x="706" y="217" />
              <mxPoint x="706" y="177" />
            </Array>
          </mxGeometry>
        </mxCell>
        <mxCell id="iPAkWmY3nCHLN92yEFl7-101" style="edgeStyle=orthogonalEdgeStyle;rounded=0;orthogonalLoop=1;jettySize=auto;html=1;startArrow=classic;startFill=1;" edge="1" parent="1" source="iPAkWmY3nCHLN92yEFl7-89" target="iPAkWmY3nCHLN92yEFl7-84">
          <mxGeometry relative="1" as="geometry">
            <Array as="points">
              <mxPoint x="566" y="270" />
            </Array>
          </mxGeometry>
        </mxCell>
        <mxCell id="iPAkWmY3nCHLN92yEFl7-89" value="RF(1) Generator" style="rounded=0;whiteSpace=wrap;html=1;" vertex="1" parent="1">
          <mxGeometry x="521" y="200" width="90" height="34" as="geometry" />
        </mxCell>
        <mxCell id="iPAkWmY3nCHLN92yEFl7-90" value="RJ45: UDP" style="edgeStyle=orthogonalEdgeStyle;shape=connector;rounded=0;orthogonalLoop=1;jettySize=auto;html=1;exitX=1;exitY=0.5;exitDx=0;exitDy=0;entryX=0;entryY=0.5;entryDx=0;entryDy=0;labelBackgroundColor=default;strokeColor=default;align=center;verticalAlign=middle;fontFamily=Helvetica;fontSize=11;fontColor=default;endArrow=classic;startArrow=block;startFill=1;" edge="1" parent="1" source="iPAkWmY3nCHLN92yEFl7-91" target="iPAkWmY3nCHLN92yEFl7-95">
          <mxGeometry relative="1" as="geometry">
            <Array as="points" />
          </mxGeometry>
        </mxCell>
        <mxCell id="iPAkWmY3nCHLN92yEFl7-91" value="ECB Hub" style="shape=image;html=1;verticalAlign=bottom;verticalLabelPosition=top;labelBackgroundColor=#ffffff;imageAspect=0;aspect=fixed;image=https://cdn1.iconfinder.com/data/icons/bootstrap-vol-3/16/motherboard-128.png;labelPosition=center;align=center;" vertex="1" parent="1">
          <mxGeometry x="378.94" y="50" width="74" height="74" as="geometry" />
        </mxCell>
        <mxCell id="iPAkWmY3nCHLN92yEFl7-92" value="RBA1" style="rounded=0;whiteSpace=wrap;html=1;" vertex="1" parent="1">
          <mxGeometry x="468.94" y="144" width="90" height="34" as="geometry" />
        </mxCell>
        <mxCell id="iPAkWmY3nCHLN92yEFl7-93" value="RBA3" style="rounded=0;whiteSpace=wrap;html=1;" vertex="1" parent="1">
          <mxGeometry x="741" y="143" width="90" height="34" as="geometry" />
        </mxCell>
        <mxCell id="iPAkWmY3nCHLN92yEFl7-95" value="EMS" style="rounded=0;whiteSpace=wrap;html=1;" vertex="1" parent="1">
          <mxGeometry x="537" y="70" width="90" height="34" as="geometry" />
        </mxCell>
        <mxCell id="iPAkWmY3nCHLN92yEFl7-100" value="CAN-2" style="edgeStyle=orthogonalEdgeStyle;rounded=0;orthogonalLoop=1;jettySize=auto;html=1;entryX=1;entryY=0.5;entryDx=0;entryDy=0;startArrow=classic;startFill=1;" edge="1" parent="1" source="iPAkWmY3nCHLN92yEFl7-96" target="iPAkWmY3nCHLN92yEFl7-89">
          <mxGeometry x="-0.4762" relative="1" as="geometry">
            <mxPoint as="offset" />
          </mxGeometry>
        </mxCell>
        <mxCell id="iPAkWmY3nCHLN92yEFl7-96" value="RBA2" style="rounded=0;whiteSpace=wrap;html=1;" vertex="1" parent="1">
          <mxGeometry x="611" y="144" width="90" height="34" as="geometry" />
        </mxCell>
        <mxCell id="iPAkWmY3nCHLN92yEFl7-102" value="Private Network &lt;br&gt;(Cellular Hotspot)" style="edgeStyle=orthogonalEdgeStyle;rounded=0;orthogonalLoop=1;jettySize=auto;html=1;startArrow=classic;startFill=1;endArrow=none;endFill=0;" edge="1" parent="1" source="iPAkWmY3nCHLN92yEFl7-97">
          <mxGeometry x="0.1505" y="-20" relative="1" as="geometry">
            <mxPoint x="19" y="100" as="targetPoint" />
            <Array as="points">
              <mxPoint x="103" y="100" />
            </Array>
            <mxPoint as="offset" />
          </mxGeometry>
        </mxCell>
        <mxCell id="iPAkWmY3nCHLN92yEFl7-104" value="Web Real Time Communication" style="edgeStyle=orthogonalEdgeStyle;rounded=0;orthogonalLoop=1;jettySize=auto;html=1;" edge="1" parent="1" source="iPAkWmY3nCHLN92yEFl7-97">
          <mxGeometry x="0.284" y="-16" relative="1" as="geometry">
            <mxPoint x="29" y="420" as="targetPoint" />
            <Array as="points">
              <mxPoint x="103" y="420" />
            </Array>
            <mxPoint x="16" y="16" as="offset" />
          </mxGeometry>
        </mxCell>
        <mxCell id="iPAkWmY3nCHLN92yEFl7-97" value="User Console" style="sketch=0;pointerEvents=1;shadow=0;dashed=0;html=1;strokeColor=none;fillColor=#434445;aspect=fixed;labelPosition=center;verticalLabelPosition=bottom;verticalAlign=top;align=center;outlineConnect=0;shape=mxgraph.vvd.monitor;" vertex="1" parent="1">
          <mxGeometry x="51.000000000000014" y="190" width="104.3" height="97" as="geometry" />
        </mxCell>
        <mxCell id="iPAkWmY3nCHLN92yEFl7-98" value="Port Switch" style="edgeStyle=orthogonalEdgeStyle;rounded=0;orthogonalLoop=1;jettySize=auto;html=1;startArrow=classic;startFill=1;" edge="1" parent="1" source="iPAkWmY3nCHLN92yEFl7-97" target="iPAkWmY3nCHLN92yEFl7-84">
          <mxGeometry relative="1" as="geometry">
            <mxPoint x="316.99882352941177" y="250" as="sourcePoint" />
            <mxPoint x="385.1700000000001" y="160" as="targetPoint" />
            <Array as="points" />
          </mxGeometry>
        </mxCell>
        <mxCell id="iPAkWmY3nCHLN92yEFl7-105" value="Patient Data&lt;br&gt;(JSON format)&lt;br&gt;&lt;div style=&quot;text-align: left;&quot;&gt;&lt;span style=&quot;background-color: initial;&quot;&gt;- Patient Details&lt;/span&gt;&lt;/div&gt;&lt;div style=&quot;text-align: left;&quot;&gt;&lt;span style=&quot;background-color: initial;&quot;&gt;- Surgery Details&lt;/span&gt;&lt;/div&gt;&lt;div style=&quot;text-align: left;&quot;&gt;&lt;span style=&quot;background-color: initial;&quot;&gt;- Notes&lt;/span&gt;&lt;/div&gt;&lt;div style=&quot;text-align: left;&quot;&gt;&lt;span style=&quot;background-color: initial;&quot;&gt;- Media Attachment&lt;/span&gt;&lt;/div&gt;" style="text;html=1;align=center;verticalAlign=middle;whiteSpace=wrap;rounded=0;" vertex="1" parent="1">
          <mxGeometry x="109" y="313" width="100" height="90" as="geometry" />
        </mxCell>
        <mxCell id="iPAkWmY3nCHLN92yEFl7-108" value="Network/ Communication Layer" style="text;html=1;align=center;verticalAlign=middle;whiteSpace=wrap;rounded=0;" vertex="1" parent="1">
          <mxGeometry x="42.64999999999998" y="1042" width="137" height="30" as="geometry" />
        </mxCell>
      </root>
    </mxGraphModel>
  </diagram>
</mxfile>
